<?xml version="1.0" standalone="no"?>
<!DOCTYPE svg PUBLIC "-//W3C//DTD SVG 20010904//EN"
 "http://www.w3.org/TR/2001/REC-SVG-20010904/DTD/svg10.dtd">
<svg version="1.0" xmlns="http://www.w3.org/2000/svg"
 width="1536.000000pt" height="1024.000000pt" viewBox="0 0 1536.000000 1024.000000"
 preserveAspectRatio="xMidYMid meet">

<g transform="translate(0.000000,1024.000000) scale(0.100000,-0.100000)"
fill="#000000" stroke="none">
<path d="M0 5120 l0 -5120 7680 0 7680 0 0 5120 0 5120 -7680 0 -7680 0 0
-5120z m5959 3988 l1 -48 540 0 540 0 2 548 3 547 2 -547 3 -548 535 0 535 0
2 423 3 422 2 -422 3 -423 535 0 535 0 2 393 3 392 5 -390 5 -390 215 -5 215
-6 -195 -2 c-107 -1 -205 -5 -217 -8 l-23 -6 0 -594 0 -594 540 0 540 0 2 593
3 592 2 -592 3 -593 518 -2 517 -3 -517 -2 -518 -3 0 -1785 0 -1785 428 -3
c235 -1 -8 -3 -540 -5 l-966 -2 -7 -65 c-4 -36 -5 -114 -1 -173 3 -59 6 -295
6 -524 l0 -417 128 -4 127 -3 -132 -2 -133 -2 -2 -492 -3 -493 -2 492 -3 492
-53 4 -52 3 59 2 59 2 -6 518 c-4 284 -7 550 -7 590 l0 72 -535 0 -535 0 0
-173 c0 -96 3 -363 7 -595 l6 -422 386 -3 386 -2 -393 0 -392 0 0 -320 c0
-176 3 -445 7 -597 l6 -278 521 -3 521 -2 -527 -3 -528 -2 -2 -507 -3 -508 -2
507 -3 508 -428 3 -427 2 434 3 434 2 -6 278 c-4 152 -7 420 -7 595 l0 317
-535 0 -535 0 0 -1182 c0 -650 -2 -1184 -5 -1186 -3 -3 -5 529 -5 1181 l0
1187 -545 0 -545 0 0 -595 0 -595 358 -2 357 -3 -352 -2 -353 -3 -2 -328 -3
-327 -2 328 -3 327 -540 0 -540 0 -2 -487 -3 -488 -2 487 -3 488 -533 3 c-292
1 -49 3 541 5 l1072 2 0 595 0 595 -535 0 -535 0 -2 -452 -3 -453 -2 453 -3
452 -535 0 -535 0 -2 -822 -3 -823 -2 823 -3 822 -538 2 -537 3 538 2 537 3 0
590 c0 325 3 590 8 590 4 0 6 -265 4 -590 l-4 -590 536 0 536 0 0 595 0 595
-1047 0 c-575 0 -1044 2 -1041 5 2 3 473 5 1046 5 l1042 0 0 595 0 594 -530
-2 -530 -2 -2 -500 c-1 -275 -2 -537 -1 -582 0 -46 -4 -83 -9 -83 -5 0 -8 237
-6 582 l3 583 -30 6 -30 7 33 1 32 1 -2 593 -3 592 -545 5 -545 5 541 3 541 2
5 327 c2 180 2 443 0 585 l-5 258 -531 2 -531 3 533 2 532 3 0 209 c0 116 3
212 8 214 4 3 7 -90 7 -206 l0 -212 70 -3 c39 -2 278 -1 533 3 l462 7 -2 592
-3 591 -525 5 -525 5 528 3 527 2 2 388 3 387 5 -385 5 -385 535 -3 536 -2 -2
577 -1 578 7 -530 c4 -291 8 -551 9 -577z m-2172 470 c-1 -51 -3 -10 -3 92 0
102 2 143 3 93 2 -51 2 -135 0 -185z m11 -830 l-3 -423 -5 360 c-5 344 -3 485
6 485 2 0 3 -190 2 -422z m6499 335 c-3 -10 -5 -4 -5 12 0 17 2 24 5 18 2 -7
2 -21 0 -30z m-7304 -30 c-13 -2 -33 -2 -45 0 -13 2 -3 4 22 4 25 0 35 -2 23
-4z m75 0 c-10 -2 -26 -2 -35 0 -10 3 -2 5 17 5 19 0 27 -2 18 -5z m365 0
c-62 -2 -165 -2 -230 0 -65 1 -14 3 112 3 127 0 180 -2 118 -3z m7577 -6 c85
-1 -173 -2 -575 -2 -410 0 -601 2 -435 5 275 5 641 4 1010 -3z m-1313 -3 c-3
-3 -12 -4 -19 -1 -8 3 -5 6 6 6 11 1 17 -2 13 -5z m-6987 -1194 c0 -5 -5 -10
-11 -10 -5 0 -7 5 -4 10 3 6 8 10 11 10 2 0 4 -4 4 -10z m-557 -7 c-46 -2
-120 -2 -165 0 -46 1 -9 3 82 3 91 0 128 -2 83 -3z m490 0 c-23 -2 -64 -2 -90
0 -26 2 -7 3 42 3 50 0 71 -1 48 -3z m8754 1 c-3 -3 -12 -4 -19 -1 -8 3 -5 6
6 6 11 1 17 -2 13 -5z m106 -1 c-18 -2 -48 -2 -65 0 -18 2 -4 4 32 4 36 0 50
-2 33 -4z m100 0 c-7 -2 -19 -2 -25 0 -7 3 -2 5 12 5 14 0 19 -2 13 -5z m164
1 c-3 -3 -12 -4 -19 -1 -8 3 -5 6 6 6 11 1 17 -2 13 -5z m-9070 -946 c-1 -62
-3 -12 -3 112 0 124 2 174 3 113 2 -62 2 -164 0 -225z m-1060 -225 c15 -11 15
-13 0 -19 -10 -3 -18 -18 -18 -33 l-2 -26 -4 25 c-3 14 -10 31 -15 38 -7 8 -7
12 1 12 6 0 12 15 12 33 1 27 2 28 6 7 2 -14 12 -31 20 -37z m10834 0 c7 -7 6
-14 -1 -18 -5 -3 -11 -18 -11 -33 -2 -24 -2 -24 -6 -5 -2 13 -13 29 -25 37
-20 14 -20 14 1 21 14 4 21 15 22 33 l2 27 4 -25 c3 -14 9 -30 14 -37z m-1704
-19 c-3 -3 -12 -4 -19 -1 -8 3 -5 6 6 6 11 1 17 -2 13 -5z m161 -1 c-26 -2
-71 -2 -100 0 -29 2 -8 3 47 3 55 0 79 -1 53 -3z m190 0 c-16 -2 -40 -2 -55 0
-16 2 -3 4 27 4 30 0 43 -2 28 -4z m-8411 -535 c-1 -90 -3 -19 -3 157 0 176 2
249 3 163 2 -86 2 -230 0 -320z m8660 -440 c-1 -90 -3 -19 -3 157 0 176 2 249
3 163 2 -86 2 -230 0 -320z m-8670 -90 c-2 -18 -4 -6 -4 27 0 33 2 48 4 33 2
-15 2 -42 0 -60z m8670 -120 c-3 -8 -6 -5 -6 6 -1 11 2 17 5 13 3 -3 4 -12 1
-19z m-8660 -621 c-1 -111 -2 -17 -2 208 0 226 1 316 2 202 2 -115 2 -299 0
-410z m721 606 c-114 -2 -303 -2 -420 0 -117 1 -24 2 207 2 231 0 327 -1 213
-2z m7545 0 c-123 -2 -323 -2 -445 0 -123 1 -23 2 222 2 245 0 345 -1 223 -2z
m485 0 c-10 -2 -26 -2 -35 0 -10 3 -2 5 17 5 19 0 27 -2 18 -5z m-91 -1070
c-1 -59 -3 -13 -3 102 0 116 2 164 3 108 2 -56 2 -151 0 -210z m-8939 -120
c-38 -2 -98 -2 -135 0 -38 2 -7 3 67 3 74 0 105 -1 68 -3z m149 1 c-3 -3 -12
-4 -19 -1 -8 3 -5 6 6 6 11 1 17 -2 13 -5z m8741 -1 c-27 -2 -69 -2 -95 0 -27
2 -5 3 47 3 52 0 74 -1 48 -3z m-1021 -895 c-1 -134 -2 -27 -2 237 0 264 1
373 2 243 2 -130 2 -346 0 -480z m-7600 290 c-3 -7 -5 -2 -5 12 0 14 2 19 5
13 2 -7 2 -19 0 -25z m3 -308 l0 -290 -112 2 -113 2 108 3 107 4 0 284 c0 157
2 285 5 285 3 0 5 -130 5 -290z m8667 -32 c-1 -46 -3 -11 -3 77 0 88 2 125 3
83 2 -42 2 -114 0 -160z m0 -145 c-3 -10 -5 -2 -5 17 0 19 2 27 5 18 2 -10 2
-26 0 -35z m-1070 -85 c-3 -7 -5 -2 -5 12 0 14 2 19 5 13 2 -7 2 -19 0 -25z
m-139 -25 c-71 -2 -185 -2 -255 0 -71 1 -13 3 127 3 140 0 198 -2 128 -3z
m139 -536 c-1 -100 -2 -18 -2 183 0 201 1 283 2 183 2 -101 2 -265 0 -366z
m181 536 c-21 -2 -57 -2 -80 0 -24 2 -7 4 37 4 44 0 63 -2 43 -4z m95 0 c-7
-2 -19 -2 -25 0 -7 3 -2 5 12 5 14 0 19 -2 13 -5z m654 1 c-3 -3 -12 -4 -19
-1 -8 3 -5 6 6 6 11 1 17 -2 13 -5z m101 -1 c-15 -2 -42 -2 -60 0 -18 2 -6 4
27 4 33 0 48 -2 33 -4z m-1031 -775 c-3 -7 -5 -2 -5 12 0 14 2 19 5 13 2 -7 2
-19 0 -25z m0 -330 c-1 -40 -3 -10 -3 67 0 77 1 110 3 73 2 -37 2 -100 0 -140z
m2169 -110 c-9 -13 -16 -17 -16 -9 0 8 -8 20 -17 27 -17 13 -17 13 0 14 9 0
17 8 17 17 0 14 3 13 16 -5 14 -20 14 -24 0 -44z m-10832 7 c-6 -5 -14 -17
-17 -25 -4 -10 -6 -7 -6 8 -1 12 -7 22 -13 23 -10 0 -10 2 0 6 6 2 12 11 12
19 0 11 4 10 18 -3 13 -14 15 -20 6 -28z m2008 8 c-40 -2 -103 -2 -140 0 -37
2 -4 3 73 3 77 0 107 -2 67 -3z m6061 0 c-95 -2 -251 -2 -345 0 -95 1 -18 3
172 3 190 0 267 -2 173 -3z m240 0 c-13 -2 -33 -2 -45 0 -13 2 -3 4 22 4 25 0
35 -2 23 -4z m500 0 c-7 -2 -21 -2 -30 0 -10 3 -4 5 12 5 17 0 24 -2 18 -5z
m-146 -436 c-1 -45 -3 -5 -3 88 0 94 2 130 3 82 2 -48 2 -125 0 -170z m-1090
-374 c-1 -109 -2 -20 -2 197 0 217 1 306 2 198 2 -109 2 -287 0 -395z m-5420
305 c-2 -13 -4 -5 -4 17 -1 22 1 32 4 23 2 -10 2 -28 0 -40z m1088 -629 c5
-42 9 -47 38 -55 l32 -8 -37 -3 -38 -4 -2 -152 -2 -152 -3 151 c-4 171 1 162
-88 166 -32 1 -28 3 20 7 l60 6 4 60 c4 62 6 61 16 -16z m-152 -56 c-7 -2 -19
-2 -25 0 -7 3 -2 5 12 5 14 0 19 -2 13 -5z m2324 -355 c-1 -68 -3 -13 -3 122
0 135 2 190 3 123 2 -68 2 -178 0 -245z m1081 65 l-3 -298 -2 288 -3 287 -163
2 -162 2 165 6 c91 3 166 7 168 8 1 1 1 -132 0 -295z m-1741 281 c-3 -3 -12
-4 -19 -1 -8 3 -5 6 6 6 11 1 17 -2 13 -5z m416 -1 c-72 -2 -194 -2 -270 0
-76 1 -16 3 132 3 149 0 211 -2 138 -3z m-846 -95 c-2 -13 -4 -5 -4 17 -1 22
1 32 4 23 2 -10 2 -28 0 -40z m0 -430 c-1 -68 -3 -13 -3 122 0 135 2 190 3
123 2 -68 2 -178 0 -245z"/>
<path d="M4888 9043 c-16 -4 -17 -46 -17 -592 l-1 -588 43 -6 c23 -3 261 -6
530 -7 387 0 488 2 491 12 3 7 7 277 11 601 l6 587 -523 -1 c-288 -1 -531 -3
-540 -6z"/>
<path d="M5957 8623 c-4 -236 -7 -503 -7 -594 l0 -166 122 -6 c153 -9 931 -9
952 -1 14 6 16 68 16 600 l0 594 -538 0 -539 0 -6 -427z"/>
<path d="M7050 8455 l0 -595 178 0 c97 0 338 -3 535 -7 l357 -6 0 601 0 602
-535 0 -535 0 0 -595z"/>
<path d="M8130 8450 l0 -601 535 2 535 1 0 593 0 592 -46 7 c-26 3 -267 6
-535 6 l-489 0 0 -600z"/>
<path d="M3792 7255 l0 -585 151 -2 152 -2 -147 -3 -148 -4 0 -593 0 -593 159
-5 c87 -2 329 -2 536 0 l378 5 -7 135 c-3 74 -6 341 -6 593 l0 459 -377 3
-378 2 378 3 377 2 2 43 c1 23 1 53 1 67 0 14 -1 258 -2 543 l-1 517 -534 0
-533 0 -1 -585z"/>
<path d="M4870 7458 c0 -211 3 -474 7 -585 l6 -203 527 0 527 0 6 407 c4 223
7 487 7 585 l0 178 -540 0 -540 0 0 -382z"/>
<path d="M5960 7613 c0 -126 -3 -388 -7 -584 l-6 -356 273 -6 c150 -4 396 -7
547 -7 l273 0 1 258 c1 141 1 307 1 367 -1 61 -1 210 -2 333 l0 222 -540 0
-540 0 0 -227z"/>
<path d="M7055 7250 l-1 -590 533 0 533 0 0 590 0 590 -532 0 -533 0 0 -590z"/>
<path d="M8130 7255 l0 -585 408 0 c224 -1 464 -3 535 -7 l127 -5 0 233 c0
129 3 395 7 592 l6 357 -542 0 -541 0 0 -585z"/>
<path d="M9220 7687 c0 -85 -3 -350 -7 -590 l-6 -437 514 -3 514 -2 -513 -3
-513 -2 5 -1182 c4 -949 8 -1183 18 -1190 7 -4 248 -8 536 -8 l522 0 0 592 0
591 -530 -6 c-355 -5 -530 -4 -530 3 0 7 179 10 530 10 l530 0 0 1190 0 1190
-535 0 -535 0 0 -153z"/>
<path d="M4874 6068 c4 -326 9 -594 10 -596 6 -5 1044 -7 1049 -2 8 8 17 1029
10 1113 l-6 77 -535 0 -535 0 7 -592z"/>
<path d="M5953 6066 l-2 -596 545 0 544 0 0 590 0 590 -417 0 c-230 0 -474 3
-543 6 l-125 7 -2 -597z"/>
<path d="M8133 6063 l4 -598 532 -3 531 -2 0 594 0 595 -182 3 c-101 2 -342 5
-536 6 l-353 2 4 -597z"/>
<path d="M7050 6060 l0 -590 333 0 c182 0 423 -3 535 -7 l202 -6 0 596 0 597
-535 0 -535 0 0 -590z"/>
<path d="M4876 5452 c-3 -3 -6 -270 -6 -594 l0 -588 535 0 535 0 0 188 c0 104
3 371 7 593 l6 404 -536 1 c-295 1 -538 -1 -541 -4z"/>
<path d="M5960 5273 c0 -104 -3 -373 -7 -596 l-6 -407 546 0 547 0 -2 590 -3
591 -537 6 -538 6 0 -190z"/>
<path d="M7050 4866 l0 -596 535 0 535 0 1 28 c1 63 -2 1147 -4 1148 -1 1
-242 5 -534 9 l-533 7 0 -596z"/>
<path d="M8130 5124 c0 -181 3 -447 7 -591 l6 -263 529 0 528 0 1 143 c2 209
-2 1022 -5 1024 -1 1 -242 6 -534 9 l-532 7 0 -329z"/>
<path d="M4871 3665 l-4 -595 536 0 536 0 3 113 c7 244 8 975 2 1025 l-6 52
-532 0 -531 0 -4 -595z"/>
<path d="M5960 3757 c0 -277 -3 -545 -6 -595 l-7 -92 547 0 546 0 0 595 0 595
-540 0 -540 0 0 -503z"/>
<path d="M7052 3665 l-1 -594 534 -1 c293 0 536 3 538 7 3 5 3 272 0 596 l-6
587 -533 0 -532 0 0 -595z"/>
</g>
</svg>
